<?xml version="1.0" encoding="UTF-8" standalone="no"?>
<!-- Created with Inkscape (http://www.inkscape.org/) -->

<svg
   xmlns:dc="http://purl.org/dc/elements/1.1/"
   xmlns:cc="http://creativecommons.org/ns#"
   xmlns:rdf="http://www.w3.org/1999/02/22-rdf-syntax-ns#"
   xmlns:svg="http://www.w3.org/2000/svg"
   xmlns="http://www.w3.org/2000/svg"
   xmlns:sodipodi="http://sodipodi.sourceforge.net/DTD/sodipodi-0.dtd"
   xmlns:inkscape="http://www.inkscape.org/namespaces/inkscape"
   width="67mm"
   height="62mm"
   viewBox="0 0 67 62"
   version="1.1"
   id="svg3202"
   inkscape:version="0.92.3 (2405546, 2018-03-11)"
   sodipodi:docname="logo.svg">
  <defs
     id="defs3196" />
  <sodipodi:namedview
     id="base"
     pagecolor="#ffffff"
     bordercolor="#666666"
     borderopacity="1.0"
     inkscape:pageopacity="0.0"
     inkscape:pageshadow="2"
     inkscape:zoom="2.8"
     inkscape:cx="207.88317"
     inkscape:cy="55.187276"
     inkscape:document-units="mm"
     inkscape:current-layer="layer1"
     showgrid="true"
     inkscape:window-width="2880"
     inkscape:window-height="1526"
     inkscape:window-x="2869"
     inkscape:window-y="-11"
     inkscape:window-maximized="1">
    <inkscape:grid
       type="xygrid"
       id="grid4154" />
  </sodipodi:namedview>
  <metadata
     id="metadata3199">
    <rdf:RDF>
      <cc:Work
         rdf:about="">
        <dc:format>image/svg+xml</dc:format>
        <dc:type
           rdf:resource="http://purl.org/dc/dcmitype/StillImage" />
        <dc:title></dc:title>
      </cc:Work>
    </rdf:RDF>
  </metadata>
  <g
     inkscape:label="Layer 1"
     inkscape:groupmode="layer"
     id="layer1"
     transform="translate(0,-235)">
    <path
       id="path3758"
       style="fill:#084884;fill-opacity:1;stroke-width:0.09630604"
       d="m 57.09658,238.38127 c 0.15126,-0.0814 0.27502,-0.20279 0.27502,-0.26976 0,-0.17802 0.33372,-0.42876 0.57066,-0.42876 0.26227,0 0.49957,0.25024 0.36002,0.37966 -0.0555,0.0515 -0.32135,0.14935 -0.59079,0.21753 -0.26945,0.0682 -0.57991,0.15216 -0.68991,0.18663 -0.11001,0.0345 -0.0763,-0.004 0.075,-0.0853 z m 5.91643,7.973 c 0.18028,-0.12752 0.37253,-0.23185 0.42722,-0.23185 0.13264,0 0.86949,-1.07289 1.19449,-1.73922 0.23272,-0.47716 0.2614,-0.65646 0.27362,-1.71126 0.017,-1.46568 -0.0363,-1.55265 -0.78885,-1.28772 -0.40204,0.14153 -0.49756,0.217 -0.49756,0.39313 0,0.17813 0.0594,0.22329 0.32502,0.24704 0.39285,0.0351 0.42342,0.223 0.11512,0.70758 -0.23392,0.36768 -0.32275,0.39899 -0.5112,0.18019 -0.35244,-0.40919 -0.80713,-0.78453 -0.91174,-0.7526 -0.19318,0.059 -0.19225,0.41442 0.002,0.60955 0.0996,0.10029 0.26406,0.29317 0.36537,0.42861 0.10131,0.13545 0.3356,0.31322 0.52063,0.39505 0.43633,0.19296 0.50155,0.37307 0.24957,0.68914 -0.1124,0.14099 -0.20436,0.29415 -0.20436,0.34034 0,0.0462 -0.0841,0.18353 -0.18698,0.30518 -0.10284,0.12165 -0.21816,0.36725 -0.25627,0.54578 -0.10291,0.4821 -0.27786,0.86674 -0.45214,0.99404 -0.0851,0.0621 -0.11792,0.11431 -0.073,0.11593 0.0449,0.002 0.22918,-0.10138 0.40946,-0.22891 z m -5.19139,1.72237 c -0.16501,-0.0369 -0.39831,-0.11612 -0.51845,-0.17599 -0.12014,-0.0599 -0.29566,-0.10885 -0.39003,-0.10885 -0.0944,0 -0.4236,-0.11477 -0.73162,-0.25504 -0.59668,-0.27175 -2.0525,-1.52845 -2.33764,-2.01792 -0.62091,-1.06586 -0.87552,-1.82072 -0.86934,-2.57746 0.003,-0.3627 0.0133,-0.37717 0.15001,-0.20957 0.0808,0.099 0.14683,0.24092 0.14683,0.31534 0,0.0744 0.11936,0.36902 0.26525,0.65467 0.14588,0.28564 0.31284,0.61645 0.37101,0.73513 0.0582,0.11867 0.35425,0.44077 0.65795,0.71576 0.54007,0.48904 0.54952,0.50651 0.43116,0.7973 -0.11661,0.28652 -0.10566,0.31051 0.30188,0.66119 0.39287,0.33805 0.75298,0.55119 1.37293,0.8126 0.13751,0.058 0.38502,0.17202 0.55003,0.25342 0.35461,0.17492 3.00257,0.27679 3.2455,0.12485 0.0928,-0.058 0.15535,-0.28585 0.17302,-0.63023 0.0469,-0.91457 0.0368,-0.98604 -0.16881,-1.18899 -0.10975,-0.10835 -0.19955,-0.30749 -0.19955,-0.44255 0,-0.1995 -0.0797,-0.27852 -0.42502,-0.42127 -0.27755,-0.11474 -0.48347,-0.14814 -0.59346,-0.0962 -0.0926,0.0437 -0.41541,0.0795 -0.71726,0.0795 -0.53052,0 -0.56249,-0.0147 -0.95878,-0.44054 -0.33123,-0.35593 -0.39671,-0.48505 -0.34095,-0.67239 0.038,-0.12752 0.0783,-0.34663 0.0897,-0.4869 0.0114,-0.14028 0.0263,-0.29484 0.0332,-0.34347 0.007,-0.0486 0.21501,-0.27358 0.46252,-0.49987 0.24752,-0.22629 0.45003,-0.45778 0.45003,-0.51441 0,-0.0566 0.0803,-0.10296 0.17847,-0.10296 0.0982,0 0.44234,-0.086 0.76484,-0.19113 l 0.58637,-0.19113 0.28004,0.28435 c 0.40193,0.4081 0.75289,0.51301 1.07052,0.32001 0.13921,-0.0846 0.46679,-0.16449 0.72796,-0.17756 0.61364,-0.0307 0.69202,-0.0833 0.69202,-0.4641 0,-0.31842 -0.28669,-0.58378 -0.49915,-0.46201 -0.0523,0.03 -0.22008,-0.002 -0.37295,-0.0721 -0.15288,-0.0696 -0.35717,-0.10989 -0.45398,-0.0896 -0.0968,0.0203 -0.33189,-0.0523 -0.52239,-0.16154 -0.2822,-0.16174 -0.43152,-0.18667 -0.80611,-0.13458 -0.48926,0.068 -0.99233,0.38832 -1.09886,0.69959 -0.0956,0.27934 -0.49678,0.20016 -0.49678,-0.098 0,-0.16404 0.0672,-0.2424 0.24055,-0.28034 0.26219,-0.0574 0.36677,-0.19081 0.45513,-0.58059 0.0668,-0.29479 0.67132,-0.62715 1.14065,-0.62715 0.23908,0 0.31446,-0.0539 0.40224,-0.28738 0.1201,-0.31949 0.003,-0.64006 -0.23364,-0.64006 -0.076,0 -0.22889,0.11477 -0.33979,0.25505 -0.16407,0.20751 -0.22577,0.23296 -0.33111,0.13656 -0.10426,-0.0954 -0.105,-0.14959 -0.004,-0.27823 0.0691,-0.0879 0.15171,-0.2314 0.18356,-0.31898 0.0804,-0.22102 0.36401,-0.28469 0.67773,-0.15213 0.22617,0.0956 0.30373,0.0846 0.53652,-0.0759 0.36626,-0.25247 0.41047,-0.67473 0.10262,-0.98034 -0.47946,-0.47599 -0.84376,-0.58005 -2.03061,-0.58005 -1.01797,0 -1.14627,0.0208 -1.71944,0.27823 -0.34067,0.15302 -0.64022,0.35126 -0.66568,0.44053 -0.0328,0.11485 -0.14699,0.1623 -0.39074,0.1623 -0.50066,0 -0.97434,0.17574 -0.97434,0.3615 0,0.0868 -0.0563,0.21264 -0.125,0.27958 -0.10189,0.0992 -0.0849,0.11051 0.0916,0.0611 0.26514,-0.0741 0.37317,0.0657 0.28951,0.37486 -0.0463,0.17108 -0.11019,0.2179 -0.24371,0.17859 -0.10431,-0.0307 -0.28962,0.026 -0.43747,0.13385 -0.14107,0.10291 -0.3169,0.18861 -0.39073,0.19045 -0.42299,0.0105 -1.12066,0.98163 -1.23023,1.71242 -0.0382,0.25504 -0.13391,0.58892 -0.2126,0.74195 -0.13445,0.26148 -0.13985,0.23665 -0.0897,-0.41249 0.0293,-0.3799 0.11969,-0.81409 0.2008,-0.96487 0.0811,-0.15079 0.14748,-0.31626 0.14748,-0.36771 0,-0.11638 0.59249,-0.98204 0.81254,-1.18717 0.0894,-0.0833 0.17939,-0.18801 0.20001,-0.23264 0.0206,-0.0446 0.30994,-0.31069 0.64291,-0.59124 0.65523,-0.55206 1.62976,-1.04977 2.34197,-1.19608 0.24598,-0.0505 0.49846,-0.15683 0.56105,-0.23622 0.15688,-0.19895 2.19189,-0.21344 2.27351,-0.0162 0.0292,0.0705 0.29254,0.18144 0.58527,0.24657 0.66576,0.14811 1.42154,0.51675 2.25453,1.09965 0.31945,0.22354 1.32879,1.3206 1.32879,1.44427 0,0.0364 0.09,0.17237 0.20001,0.30207 0.11001,0.12969 0.20001,0.29677 0.20001,0.37129 0,0.0745 0.10126,0.26712 0.22502,0.42802 0.21186,0.27545 0.22582,0.39012 0.2389,1.96193 0.0127,1.52219 -0.003,1.68392 -0.1738,1.83426 -0.10323,0.0907 -0.21729,0.27425 -0.25348,0.40794 -0.0948,0.35039 -0.73731,1.21024 -1.29144,1.72835 -0.47969,0.44852 -1.25626,0.99124 -1.41836,0.99124 -0.0478,0 -0.14277,0.0517 -0.21095,0.11496 -0.0682,0.0632 -0.33595,0.16392 -0.59504,0.22376 -0.25908,0.0598 -0.65107,0.1732 -0.87108,0.25193 -0.42267,0.15126 -2.03492,0.19166 -2.60014,0.0652 z m -7.2399,39.0731 c 0.20777,-0.23217 0.17258,-0.86188 -0.0569,-1.01748 -0.22534,-0.1528 -0.78481,-0.17079 -1.06025,-0.0341 -0.14969,0.0743 -0.19343,0.19593 -0.19343,0.53791 0,0.24305 0.054,0.49199 0.12,0.5532 0.18236,0.16911 1.02899,0.141 1.19055,-0.0395 z m -5.96795,0.005 c 0.21031,-0.19504 0.2051,-0.81483 -0.008,-0.97902 -0.26056,-0.20055 -1.12071,-0.16545 -1.29276,0.0528 -0.18626,0.23622 -0.18034,0.60891 0.0137,0.86588 0.12465,0.16504 0.25279,0.20613 0.6429,0.20613 0.30957,0 0.5445,-0.0531 0.64436,-0.14574 z m -4.79878,-0.0604 c 0.19408,-0.25697 0.19999,-0.62966 0.0137,-0.86588 -0.10726,-0.13604 -0.26235,-0.18003 -0.63466,-0.18003 -0.61995,0 -0.82348,0.15016 -0.82348,0.60756 0,0.48049 0.20395,0.64448 0.80152,0.64448 0.3901,0 0.51824,-0.0411 0.64289,-0.20613 z m 10.73624,5.28848 c 0.0866,-0.0803 0.12001,-0.72474 0.12001,-2.31533 0,-2.46672 0.0217,-2.39605 -0.73632,-2.39605 -0.64969,0 -0.66375,0.0504 -0.66375,2.37768 0,1.26072 0.041,2.15719 0.10352,2.2656 0.0801,0.13882 0.21127,0.17939 0.58003,0.17939 0.26208,0 0.53051,-0.0501 0.59651,-0.11129 z m -2.18737,-0.13308 c 0.22993,-0.27109 0.2718,-0.67887 0.0873,-0.85001 -0.066,-0.0612 -0.28734,-0.11129 -0.49185,-0.11129 -0.69466,0 -0.68821,0.0118 -0.68821,-1.26196 v -1.14937 h 0.53003 c 0.6246,0 0.77004,-0.10525 0.77004,-0.55729 0,-0.48687 -0.16737,-0.63582 -0.75004,-0.66754 l -0.50003,-0.0272 -0.0314,-0.46136 c -0.0173,-0.25375 -0.079,-0.51459 -0.13725,-0.57965 -0.13404,-0.14978 -1.00182,-0.15501 -1.16142,-0.007 -0.066,0.0612 -0.12001,0.31054 -0.12001,0.55408 0,0.39818 -0.0302,0.45728 -0.30002,0.58666 -0.26514,0.12716 -0.30001,0.19184 -0.30001,0.55646 0,0.36463 0.0349,0.42931 0.30001,0.55647 l 0.30002,0.14387 v 1.38878 1.38877 l 0.40002,0.37097 c 0.39488,0.36621 0.40957,0.37098 1.1428,0.37098 0.68333,0 0.75938,-0.0196 0.95005,-0.24437 z m -3.83706,0.1121 c 0.18297,-0.12467 0.19361,-0.25605 0.18514,-2.28579 -0.0101,-2.41184 -0.008,-2.40609 -0.73517,-2.40319 -0.67328,0.003 -0.65592,-0.0611 -0.65592,2.40991 0,1.88363 0.0235,2.24636 0.15001,2.32056 0.22566,0.13229 0.8361,0.1083 1.05594,-0.0415 z m -2.35601,-0.0532 c 0.19138,-0.17749 0.20001,-0.30914 0.20001,-3.05295 0,-1.57711 -0.0271,-2.93303 -0.0603,-3.01316 -0.13706,-0.33123 -1.17774,-0.37317 -1.38912,-0.056 -0.0378,0.0567 -0.0684,1.44502 -0.0681,3.08504 6e-4,2.74811 0.0146,2.99129 0.17816,3.1022 0.27507,0.18653 0.90687,0.1504 1.13929,-0.0652 z m -2.45728,0.0398 c 0.1337,-0.12399 0.15716,-0.46211 0.15716,-2.2656 0,-2.37665 -0.01,-2.41133 -0.68807,-2.41133 -0.74013,0 -0.73287,-0.0244 -0.71916,2.41665 0.0107,1.9122 0.0323,2.18813 0.1788,2.29009 0.23378,0.16268 0.88319,0.14461 1.07127,-0.0298 z m -15.689163,0.015 c 0.173383,-0.11757 0.18994,-0.2333 0.164711,-1.15129 -0.0201,-0.73129 0.0068,-1.04055 0.09489,-1.09104 0.06762,-0.0388 0.748175,-0.0737 1.512352,-0.0776 1.267858,-0.006 1.402512,-0.0233 1.539175,-0.19258 0.17642,-0.21851 0.122028,-0.86527 -0.0829,-0.98576 -0.07293,-0.0429 -0.742372,-0.0786 -1.487662,-0.0794 -0.91875,-9.6e-4 -1.393713,-0.0373 -1.475078,-0.11271 -0.186905,-0.17333 -0.156293,-1.15436 0.03818,-1.22357 0.087,-0.031 0.865544,-0.0563 1.730092,-0.0563 1.089252,0 1.608752,-0.0342 1.691911,-0.11129 0.168796,-0.15654 0.149243,-0.64342 -0.03567,-0.88825 -0.152986,-0.20256 -0.194384,-0.20613 -2.392985,-0.20613 -1.900573,0 -2.260959,0.0219 -2.394457,0.14574 -0.136074,0.1262 -0.157151,0.52957 -0.157151,3.00755 0,3.19819 -0.0098,3.15328 0.688067,3.15328 0.205569,0 0.460505,-0.0588 0.566524,-0.13072 z M 59.8943,292.25303 c 0.49287,-0.29398 0.69858,-0.60384 0.75161,-1.13211 0.0619,-0.61692 -0.23442,-0.99791 -1.0742,-1.38101 -0.35752,-0.1631 -0.7238,-0.29874 -0.81396,-0.30142 -0.28391,-0.008 -0.62709,-0.32853 -0.55055,-0.51351 0.0597,-0.14432 0.14935,-0.15876 0.67132,-0.10816 0.33133,0.0321 0.69336,0.10353 0.80451,0.1587 0.38612,0.19164 0.92717,-0.37197 0.75546,-0.78695 -0.11074,-0.26762 -0.97979,-0.54937 -1.71682,-0.55659 -0.61931,-0.006 -0.75194,0.0254 -1.15006,0.27311 -0.57527,0.35788 -0.8256,0.7924 -0.7665,1.33045 0.0777,0.70755 0.64611,1.16801 1.74017,1.40974 0.57588,0.12724 0.86566,0.34773 0.7678,0.58423 -0.13406,0.32398 -0.79635,0.31068 -1.55966,-0.0313 -0.23067,-0.10336 -0.49577,-0.18792 -0.58912,-0.18792 -0.24354,0 -0.50987,0.42564 -0.47366,0.75701 0.0267,0.24458 0.0989,0.3077 0.53095,0.46434 1.09184,0.39585 2.03235,0.40339 2.67271,0.0214 z m -7.02022,-2.61847 c -0.1624,-0.0489 -0.11471,-0.22557 0.1383,-0.51243 0.45174,-0.51219 1.66494,-0.39325 1.81964,0.17838 0.0349,0.12897 0.034,0.26178 -0.002,0.29514 -0.0665,0.0616 -1.76801,0.0955 -1.95601,0.0389 z m 2.37906,2.63636 c 0.57997,-0.27255 0.74432,-0.44078 0.70106,-0.71758 -0.0452,-0.28943 -0.64817,-0.61301 -0.87031,-0.46707 -0.29244,0.19213 -0.83219,0.38771 -1.06998,0.38771 -0.32517,0 -0.76047,-0.1858 -0.96532,-0.41202 -0.35377,-0.39068 -0.2691,-0.41664 1.44662,-0.44356 l 1.62386,-0.0255 0.1253,-0.24268 c 0.0956,-0.18522 0.10003,-0.36951 0.0185,-0.77827 -0.22598,-1.13371 -1.08306,-1.88398 -2.25154,-1.97097 -0.51759,-0.0385 -0.70384,-0.0106 -1.05904,0.15909 -0.54839,0.26189 -1.02115,0.68141 -1.34446,1.19305 -0.33166,0.52484 -0.37069,1.66847 -0.0738,2.16276 0.44702,0.74426 1.01276,1.18254 1.7873,1.3846 0.4855,0.12666 1.40669,0.0172 1.93176,-0.22957 z m -18.142097,-0.0345 c 0.686627,-0.34245 0.809277,-0.65369 0.409932,-1.04025 -0.316868,-0.30672 -0.560222,-0.35213 -0.750093,-0.13996 -0.185713,0.20752 -0.833578,0.3573 -1.239791,0.28663 -0.214042,-0.0372 -0.479843,-0.18231 -0.659218,-0.35979 -0.270365,-0.26751 -0.300565,-0.35796 -0.300565,-0.90023 0,-0.54404 0.02971,-0.63222 0.304623,-0.90425 0.408085,-0.40379 1.144977,-0.44015 1.802946,-0.089 l 0.363685,0.19411 0.3089,-0.22646 c 0.409068,-0.2999 0.482078,-0.51773 0.253098,-0.75523 -0.683987,-0.70944 -1.888953,-0.92402 -2.841644,-0.50605 -0.61478,0.26972 -1.072522,0.67328 -1.382585,1.21893 -0.315203,0.5547 -0.296272,1.61472 0.03928,2.19928 0.310662,0.5412 0.600895,0.82967 1.050771,1.04437 0.824605,0.39355 1.824007,0.38518 2.640665,-0.0221 z m -7.565927,-0.85309 c -0.573516,-0.41926 -0.162735,-0.92953 0.748306,-0.92953 0.733802,0 0.876781,0.0593 0.876781,0.36345 0,0.3137 -0.470583,0.65839 -0.985829,0.7221 -0.273254,0.0338 -0.432943,-0.005 -0.639258,-0.15602 z m 1.163366,0.96654 c 0.265019,-0.17214 0.504724,-0.17027 0.661731,0.005 0.143022,0.15982 0.721563,0.18459 1.006628,0.0431 0.179891,-0.0893 0.193272,-0.2078 0.1911,-1.69257 -0.0023,-1.56197 -0.0082,-1.60655 -0.275015,-2.05734 -0.46543,-0.78648 -1.27665,-1.13666 -2.389441,-1.03147 -0.339176,0.0321 -0.822952,0.14291 -1.075057,0.24633 -0.491515,0.20164 -0.563174,0.37538 -0.359614,0.8719 l 0.09876,0.2409 1.053993,-0.0632 c 1.011879,-0.0607 1.063875,-0.0546 1.301313,0.15228 0.435759,0.37964 0.334068,0.44586 -0.601576,0.39173 -1.357585,-0.0786 -2.104936,0.29744 -2.360907,1.18777 -0.230926,0.80322 0.325973,1.64527 1.226668,1.85477 0.435199,0.10122 1.260334,0.0202 1.521416,-0.14939 z m -10.335565,2.0043 c -0.02631,-0.0638 0.0065,-2.27504 0.02074,-5.10604 l -0.02074,-5.21271 20.347791,0.0392 c 11.165579,0.0215 20.453767,-0.10241 20.662625,-0.0392 0.529167,0.26458 1.155029,0.53465 1.5875,1.32291 l 0.264584,0.52917 v 4.23333 c 0,1.5875 0,2.64584 0,4.23334 l -21.446055,-0.001 c -2.102037,-1.1e-4 -21.509242,0.0802 -21.416447,0.001 z"
       inkscape:connector-curvature="0"
       sodipodi:nodetypes="csscccccscccsccccccccsccccccccsccccsccccccccccsccscccccsscccccsccccccsccscscccccccsccssccccccccccsccccccccscscccccsccccccccscccccccsccccssscccssscscccsscsscccccscscccccscccccsccccscccccccsscccccccccccccsccscssccccccccccccccccscccccccccccccscccccccccccccccccscccccscsccccssccccccccccccccsccccccscccccscc" />
    <path
       style="opacity:1;fill:#d40000;fill-opacity:1;stroke-width:0.13363476"
       d="m 18.664308,239.52606 c -0.836114,0.005 -1.706623,0.0706 -2.611727,0.19688 -1.896186,0.26447 -2.958359,0.59512 -4.581115,1.42576 -1.6094536,0.82382 -3.1167196,2.18688 -4.1604696,3.76256 -1.068513,1.61306 -1.73988,3.37457 -2.244307,5.88698 -0.287482,1.43186 -0.297745,1.74838 -0.301791,9.6175 l -0.0041,8.13697 0.374137,0.28008 c 0.512826,0.38319 1.716516,0.38685 2.366781,0.007 l 0.466638,-0.27285 0.07648,-7.9437 0.077,-7.94371 0.34985,-1.34772 c 0.727819,-2.80182 1.508716,-4.29867 3.0840496,-5.91281 1.00823,-1.03308 2.137923,-1.71249 3.844726,-2.31201 0.750304,-0.26355 1.126043,-0.30041 3.124874,-0.30696 2.158615,-0.007 2.325062,0.011 3.340881,0.36846 2.715503,0.95551 4.799644,2.69818 5.994467,5.01158 0.798912,1.54684 0.997651,1.58159 1.659847,0.2899 1.465768,-2.85917 3.243009,-4.45545 5.97638,-5.36763 0.841515,-0.28083 1.163359,-0.31051 3.207038,-0.29972 2.104959,0.0111 2.350312,0.0384 3.34088,0.37569 3.602758,1.22658 5.721919,3.60812 6.849195,7.6972 l 0.460438,1.67018 -0.0093,8.73022 c -0.01049,9.69676 -0.08405,8.8903 0.908989,9.9565 0.589632,0.63307 1.27109,0.99315 2.333191,1.233 1.357551,0.30655 3.077342,0.0261 4.074687,-0.66508 0.270983,-0.18779 0.731189,-0.65446 1.022675,-1.03663 l 0.530201,-0.69453 v -8.56123 c 0,-4.70865 -0.04438,-8.71927 -0.0987,-8.91264 -0.131958,-0.46967 -0.827899,-0.78445 -1.734261,-0.78445 -0.617924,0 -0.775288,0.0544 -1.082104,0.37466 l -0.359151,0.37465 v 8.41654 8.41602 l -0.38809,0.22945 c -0.470406,0.27787 -1.128059,0.29718 -1.384412,0.0408 -0.220196,-0.22019 -0.365868,-4.56499 -0.365868,-10.93525 0,-2.12528 -0.06601,-4.59598 -0.146762,-5.49062 -0.167044,-1.85067 -0.857348,-4.78938 -1.389062,-5.91333 -1.704084,-3.60214 -4.130818,-5.78913 -7.818128,-7.04453 -2.358438,-0.80297 -6.035881,-0.96796 -8.352462,-0.37466 -1.587497,0.40658 -3.571705,1.45135 -4.683434,2.466 -0.51166,0.46698 -1.015342,1.00825 -1.119312,1.20251 -0.103968,0.19427 -0.277641,0.35295 -0.386022,0.35295 -0.108379,0 -0.688462,-0.47112 -1.288812,-1.04748 -2.353238,-2.2592 -5.330814,-3.37494 -8.953975,-3.35276 z m -0.201538,5.46943 c -1.106827,0 -1.551751,0.0642 -2.386417,0.34416 -0.564203,0.18924 -1.120581,0.42958 -1.236617,0.53434 -0.116036,0.10475 -0.283865,0.19068 -0.373104,0.19068 -0.08924,0 -0.658938,0.49641 -1.265556,1.10278 -1.232294,1.23178 -1.723704,2.05539 -2.360063,3.9548 -0.608343,1.81578 -0.686719,3.61472 -0.640788,14.73346 0.04242,10.26853 0.01425,9.85782 0.703317,10.15804 0.14955,0.0652 0.65178,0.0947 1.116211,0.0661 0.633529,-0.039 0.921482,-0.12415 1.152384,-0.34107 l 0.307475,-0.28887 0.09353,-10.98434 c 0.102603,-12.0727 0.07326,-11.66045 0.950847,-13.52321 0.529314,-1.12352 1.308758,-1.94365 2.318721,-2.43964 0.649644,-0.31904 0.903637,-0.366 1.949752,-0.36225 1.031834,0.004 1.321117,0.0581 2.034501,0.38395 1.36773,0.62468 2.348952,1.82712 3.004468,3.68091 0.249007,0.7042 0.266302,1.25568 0.337447,10.98073 l 0.07493,10.23917 0.414445,0.24701 c 0.528499,0.31505 1.726766,0.32553 2.301668,0.0202 0.285533,-0.15167 0.442685,-0.35409 0.500745,-0.6444 0.140385,-0.70191 0.09212,-19.21148 -0.05271,-20.21324 -0.300998,-2.08199 -1.101924,-3.61452 -2.747119,-5.25756 -1.805868,-1.80349 -3.673407,-2.58175 -6.198072,-2.58175 z m 19.844267,0.002 c -1.509974,-0.0156 -2.211636,0.14528 -3.403928,0.69969 -2.246508,1.04462 -3.922281,3.29453 -4.862235,6.52777 l -0.361735,1.24385 -0.04444,11.05669 -0.04444,11.05669 0.440283,0.2682 c 0.541697,0.33024 1.805159,0.36515 2.384351,0.0656 l 0.39429,-0.20412 0.01395,-4.70721 c 0.0076,-2.58896 0.05796,-7.5335 0.112135,-10.98796 0.09183,-5.85537 0.118343,-6.35327 0.389126,-7.34993 0.531251,-1.95533 1.414809,-3.3071 2.626712,-4.01733 0.811411,-0.47551 1.328885,-0.60627 2.407089,-0.60927 2.625137,-0.007 4.567092,1.92128 5.063773,5.0276 0.14496,0.90661 0.208523,3.14401 0.258381,9.0873 l 0.06615,7.88428 0.325562,0.93534 c 0.624414,1.79506 1.266015,2.87208 2.352312,3.94808 1.740927,1.72443 3.315052,2.54111 5.761406,2.98897 0.672909,0.1232 3.696081,-0.0527 4.476728,-0.26045 1.633821,-0.4349 2.916267,-1.18099 4.192509,-2.43861 1.265057,-1.24663 1.945261,-2.30092 2.501656,-3.87729 l 0.316259,-0.89503 0.0026,-7.61711 c 0.0013,-4.18945 -0.03721,-8.47698 -0.08527,-9.52758 l -0.08733,-1.90996 -0.413412,-0.29508 c -0.309705,-0.22089 -0.603265,-0.29455 -1.17254,-0.29455 -0.658334,0 -0.814388,0.0521 -1.169437,0.39222 l -0.409795,0.39274 v 9.60097 9.60096 l -0.347782,0.68626 c -0.975997,1.92603 -3.686029,3.44786 -6.140193,3.44786 -0.927476,0 -2.523053,-0.37157 -3.434416,-0.79996 -0.94424,-0.44383 -2.19052,-1.74145 -2.644283,-2.7528 -0.439949,-0.98056 -0.41267,-0.48486 -0.673859,-12.23233 -0.140483,-6.31849 -0.182253,-6.81014 -0.757579,-8.93744 -0.222729,-0.82357 -0.925356,-2.06095 -1.590598,-2.80086 -0.795684,-0.88499 -1.677443,-1.45975 -2.986381,-1.94613 -0.854866,-0.31765 -1.260031,-0.38137 -2.754871,-0.43357 -0.252479,-0.009 -0.485024,-0.0143 -0.700733,-0.0165 z M 4.7625,284.03542 c 0,3.70416 0,6.87916 4e-7,10.31875 h 7.6729166 l 7.67292,-1e-5 c -0.038,-3.41784 -4e-6,-6.87916 -4e-6,-10.31874 -0.264583,0 -2.529796,-0.0308 -7.604399,-0.0186 z m 9.036989,1.71307 c 0.415812,-0.0114 0.783813,0.0433 0.784448,0.17259 4.53e-4,0.0919 0.105407,0.34743 0.233578,0.56793 0.200705,0.34528 0.233061,0.77562 0.233061,3.10059 0,1.62848 -0.05271,2.74827 -0.133326,2.82256 -0.166593,0.15353 -1.077995,0.26504 -1.577164,0.19275 -0.532606,-0.0771 -0.660201,-0.52932 -0.603064,-2.13992 0.02672,-0.75336 0.03102,-1.36994 0.0093,-1.36994 -0.02172,0 -0.305038,0.41013 -0.62942,0.91157 -0.790815,1.22248 -0.93379,1.33408 -1.298628,1.01131 -0.156854,-0.13877 -0.516672,-0.60778 -0.799435,-1.0418 l -0.5141786,-0.78902 v 1.43298 c 0,1.89072 -0.03613,1.94976 -1.19941,1.94976 -0.50757,0 -0.956626,-0.0547 -0.997871,-0.12145 -0.04125,-0.0667 -0.114502,-1.38962 -0.162781,-2.93987 -0.08722,-2.80055 -0.08609,-2.81895 0.192236,-2.81895 0.245504,0 0.27116,-0.0577 0.204639,-0.46767 l -0.07596,-0.46767 h 0.810286 c 0.445827,0 0.953505,0.0545 1.128097,0.12092 0.178318,0.0678 0.6278116,0.59299 1.0252596,1.19838 l 0.707451,1.07745 0.639754,-0.9803 c 0.352042,-0.53927 0.780264,-1.07853 0.951363,-1.19838 0.192178,-0.1346 0.655957,-0.21236 1.071769,-0.22375 z m 3.273702,0.0124 c 0.33403,0.0114 0.64237,0.0739 0.791683,0.18293 0.240924,0.17597 0.262527,0.39933 0.30024,3.13573 0.02681,1.94516 -0.0088,3.03836 -0.104903,3.21789 -0.125956,0.23535 -0.27677,0.27234 -1.120862,0.27234 -0.536407,0 -1.015535,-0.0404 -1.064534,-0.0894 -0.049,-0.049 -0.08888,-1.52377 -0.08888,-3.27732 v -3.18844 l 0.342615,-0.13022 c 0.250987,-0.0954 0.610615,-0.13489 0.944645,-0.12351 z m -2.600875,0.91881 c -0.116543,0 -0.198948,0.12619 -0.213424,0.32762 -0.0047,0.0654 -0.0027,0.0977 0.0057,0.0977 0.0069,0 0.04152,-0.0333 0.077,-0.0739 0.178742,-0.20454 0.233495,-0.3514 0.130741,-0.3514 z m -6.4962436,0.29714 c -0.06236,0.012 -0.03663,0.28445 0.03411,0.36121 0.01347,0.0146 0.02869,0.0269 0.03359,0.0269 0.01483,0 0.04741,-0.0374 0.05891,-0.0677 0.01818,-0.0478 0.01174,-0.15878 -0.01189,-0.20981 -0.02725,-0.0589 -0.08639,-0.11603 -0.114722,-0.11058 z m 6.0859326,0.24597 c -0.01461,0 -0.04849,0.0187 -0.07493,0.0413 -0.116706,0.0999 -0.373653,0.45806 -0.481625,0.67128 -0.06413,0.12663 -0.07775,0.19784 -0.04858,0.25425 0.01549,0.03 0.02707,0.0372 0.05684,0.0372 0.0577,0 0.124068,-0.0775 0.178284,-0.20826 0.05963,-0.14386 0.143048,-0.28117 0.2651,-0.43666 0.100694,-0.12829 0.168448,-0.24744 0.168465,-0.29611 1.2e-5,-0.0333 -0.02984,-0.0631 -0.06356,-0.0631 z m -5.7717406,0.25115 c -0.02067,0.005 -0.0291,0.0362 -0.02894,0.0956 2.57e-4,0.0988 0.04666,0.19242 0.168465,0.339 0.126161,0.15182 0.180569,0.23509 0.248564,0.38034 0.0633,0.13523 0.122252,0.21025 0.195337,0.24753 0.108972,0.0556 0.152106,0.10674 0.166915,0.19844 0.01899,0.11757 0.119055,0.24938 0.233061,0.30644 0.06335,0.0317 0.107967,0.0284 0.113171,-0.008 0.01224,-0.0863 -0.09276,-0.25864 -0.277502,-0.45475 -0.126863,-0.13467 -0.142913,-0.15841 -0.212391,-0.31523 -0.06509,-0.14691 -0.378853,-0.59594 -0.505395,-0.72347 -0.048,-0.0484 -0.08061,-0.0704 -0.101286,-0.0656 z m 4.8875576,0.99787 c -0.04669,-0.0166 -0.119084,0.0725 -0.133842,0.16485 -0.0091,0.057 0.01764,0.12396 0.05736,0.14315 0.03566,0.0172 0.037,0.017 0.06976,-0.009 0.0707,-0.0556 0.07557,-0.27465 0.0067,-0.29921 z"
       id="path3828"
       inkscape:connector-curvature="0"
       sodipodi:nodetypes="cccscccccccccccccscsccccccccccscsccccccsssccscsscccccsccscccccscccccccccccccccccccccccscccccccccccccccccscccccscsscccccccccccsccccscccsccccssccsccscccccccccscscscccccsscccccsccccccccscccccccccccccccccccccccc" />
  </g>
</svg>
